<?xml version="1.0" encoding="UTF-8"?>
<svg width="24" height="24" viewBox="0 0 24 24" fill="none" xmlns="http://www.w3.org/2000/svg">
    <path d="M12 3C10.3431 3 9 4.34315 9 6C9 7.65685 10.3431 9 12 9C13.6569 9 15 7.65685 15 6C15 4.34315 13.6569 3 12 3Z" fill="currentColor"/>
    <path d="M12 15C10.3431 15 9 16.3431 9 18C9 19.6569 10.3431 21 12 21C13.6569 21 15 19.6569 15 18C15 16.3431 13.6569 15 12 15Z" fill="currentColor"/>
    <path d="M18 15C16.3431 15 15 16.3431 15 18C15 19.6569 16.3431 21 18 21C19.6569 21 21 19.6569 21 18C21 16.3431 19.6569 15 18 15Z" fill="currentColor"/>
    <path d="M12 9V15" stroke="currentColor" stroke-width="2" stroke-linecap="round"/>
    <path d="M15 18H18" stroke="currentColor" stroke-width="2" stroke-linecap="round"/>
</svg> 